<svg xmlns="http://www.w3.org/2000/svg" version="1.1" xmlns:xlink="http://www.w3.org/1999/xlink" xmlns:svgjs="http://svgjs.dev/svgjs" width="1000" height="1000" viewBox="0 0 1000 1000"><rect width="1000" height="1000" fill="#ffffff"></rect><g transform="matrix(0.7,0,0,0.7,149.70043057574566,20.188836371991954)"><svg viewBox="0 0 180 247" data-background-color="#ffffff" preserveAspectRatio="xMidYMid meet" height="1372" width="1000" xmlns="http://www.w3.org/2000/svg" xmlns:xlink="http://www.w3.org/1999/xlink"><g id="tight-bounds" transform="matrix(1,0,0,1,0.07703213766541239,-0.09999730957721908)"><svg viewBox="0 0 179.84593437945787 247.2" height="247.2" width="179.84593437945787"><g><svg viewBox="0 0 179.84593437945787 247.2" height="247.2" width="179.84593437945787"><g><svg viewBox="0 0 179.84593437945787 247.2" height="247.2" width="179.84593437945787"><g id="textblocktransform"><svg viewBox="0 0 179.84593437945787 247.2" height="247.2" width="179.84593437945787" id="textblock"><g><svg viewBox="0 0 179.84593437945787 247.2" height="247.2" width="179.84593437945787"><g transform="matrix(1,0,0,1,0,0)"><svg width="179.84593437945787" viewBox="4.949999809265137 -35.04999923706055 25.5 35.04999923706055" height="247.2" data-palette-color="#4b91f1"><g class="undefined-text-0" data-fill-palette-color="primary" id="text-0"><path d="M9.25-0.05L9.25-1.5 28.95-1.5 28.95-31.45 17.7-7.35 6.45-31.5 6.45 0 4.95-0.05 4.95-35.05 6.45-35.05 17.7-10.9 28.95-35 30.45-35.05 30.45 0 9.25-0.05Z" fill="#4b91f1" data-fill-palette-color="primary"></path></g></svg></g></svg></g></svg></g></svg></g></svg></g><defs></defs></svg><rect width="179.84593437945787" height="247.2" fill="none" stroke="none" visibility="hidden"></rect></g></svg></g></svg>